<svg width="23" height="22" viewBox="0 0 23 22" fill="none" xmlns="http://www.w3.org/2000/svg">
<path opacity="0.3" d="M9.27431 17.7991C11.2763 17.7991 13.1456 17.1741 14.6652 16.1326L20.3818 21.6181C20.6471 21.8727 20.9968 22 21.3586 22C22.1426 22 22.7094 21.4214 22.7094 20.6807C22.7094 20.3335 22.5888 20.0095 22.3235 19.7549L16.6431 14.2925C17.8371 12.788 18.5486 10.9248 18.5486 8.89953C18.5486 4.00421 14.3758 0 9.27431 0C4.16077 0 0 4.00421 0 8.89953C0 13.7949 4.16077 17.7991 9.27431 17.7991ZM9.27431 15.878C5.28237 15.878 2.002 12.7186 2.002 8.89953C2.002 5.08049 5.28237 1.9211 9.27431 1.9211C13.2542 1.9211 16.5466 5.08049 16.5466 8.89953C16.5466 12.7186 13.2542 15.878 9.27431 15.878Z" fill="#242424"/>
</svg>
