<svg width="8" height="15" viewBox="0 0 8 15" fill="none" xmlns="http://www.w3.org/2000/svg">
<path d="M0.00257723 7.48822C0.00208917 7.23831 0.0891238 6.99613 0.248574 6.8037L5.59634 0.386379C5.77789 0.167958 6.03877 0.0306012 6.32158 0.00452577C6.6044 -0.0215497 6.886 0.0657922 7.10442 0.247337C7.32284 0.428881 7.46019 0.689758 7.48627 0.972576C7.51235 1.25539 7.425 1.53699 7.24346 1.75541L2.45186 7.48822L7.07233 13.221C7.16117 13.3304 7.22752 13.4563 7.26755 13.5914C7.30759 13.7266 7.32052 13.8683 7.30562 14.0084C7.29071 14.1486 7.24825 14.2844 7.18068 14.4081C7.11311 14.5317 7.02177 14.6408 6.9119 14.7291C6.80192 14.827 6.67291 14.9012 6.53293 14.947C6.39295 14.9928 6.24503 15.0091 6.09844 14.9951C5.95184 14.981 5.80973 14.9368 5.681 14.8653C5.55227 14.7938 5.4397 14.6964 5.35035 14.5794L0.184401 8.16204C0.0501554 7.96408 -0.0138627 7.72684 0.00257723 7.48822Z" fill="#242424"/>
</svg>
