<svg width="12" height="11" viewBox="0 0 12 11" fill="none" xmlns="http://www.w3.org/2000/svg">
<path d="M5.39322 0.236078C5.5384 -0.0786769 5.98575 -0.0786769 6.13093 0.236078L7.52917 3.26745C7.58834 3.39573 7.70991 3.48406 7.85019 3.50069L11.1653 3.89375C11.5095 3.93456 11.6477 4.36001 11.3932 4.59535L8.94232 6.8619C8.8386 6.95782 8.79216 7.10073 8.8197 7.23929L9.47029 10.5136C9.53785 10.8536 9.17594 11.1165 8.87347 10.9472L5.96048 9.31663C5.83721 9.24763 5.68694 9.24763 5.56367 9.31663L2.65067 10.9472C2.34821 11.1165 1.9863 10.8536 2.05385 10.5136L2.70445 7.23929C2.73198 7.10073 2.68555 6.95782 2.58183 6.8619L0.130902 4.59535C-0.123584 4.36001 0.0146533 3.93456 0.358867 3.89375L3.67395 3.50069C3.81424 3.48406 3.93581 3.39573 3.99498 3.26745L5.39322 0.236078Z" fill="#FFB800"/>
</svg>
