<svg width="12" height="11" viewBox="0 0 12 11" fill="none" xmlns="http://www.w3.org/2000/svg">
<path d="M5.3932 0.23614C5.53839 -0.078615 5.98573 -0.0786149 6.13091 0.23614L7.52915 3.26751C7.58832 3.39579 7.70989 3.48412 7.85018 3.50075L11.1653 3.89381C11.5095 3.93462 11.6477 4.36007 11.3932 4.59541L8.9423 6.86196C8.83858 6.95788 8.79215 7.10079 8.81968 7.23936L9.47028 10.5137C9.53783 10.8536 9.17592 11.1166 8.87346 10.9473L5.96046 9.3167C5.83719 9.24769 5.68692 9.24769 5.56365 9.3167L2.65066 10.9473C2.34819 11.1166 1.98628 10.8536 2.05384 10.5136L2.70444 7.23936C2.73197 7.10079 2.68553 6.95788 2.58181 6.86196L0.130886 4.59541C-0.1236 4.36007 0.0146378 3.93462 0.358851 3.89381L3.67394 3.50075C3.81423 3.48412 3.9358 3.39579 3.99497 3.26751L5.3932 0.23614Z" fill="#FFB800"/>
</svg>
