<svg width="29" height="29" viewBox="0 0 29 29" fill="none" xmlns="http://www.w3.org/2000/svg">
<path d="M20.914 17.743L18.823 18.921C18.572 19.0623 18.2818 19.1175 17.9965 19.0784C17.7112 19.0392 17.4465 18.9077 17.243 18.704L10.264 11.725C10.0604 11.5214 9.92907 11.2568 9.88989 10.9715C9.85072 10.6862 9.90588 10.396 10.047 10.145L11.225 8.05402C11.437 7.67769 11.52 7.24228 11.4614 6.81432C11.4027 6.38637 11.2055 5.98938 10.9 5.68402L7.76598 2.55002C7.5823 2.36625 7.3642 2.22046 7.12415 2.121C6.88411 2.02153 6.62682 1.97034 6.36698 1.97034C6.10715 1.97034 5.84986 2.02153 5.60981 2.121C5.36977 2.22046 5.15167 2.36625 4.96798 2.55002L3.54498 3.97202C2.71286 4.80413 2.18281 5.89056 2.03912 7.05855C1.89543 8.22653 2.14635 9.40904 2.75198 10.418L3.46598 11.608C7.11222 17.685 12.2588 22.723 18.412 26.239L18.553 26.32C20.655 27.521 23.252 27.171 24.935 25.489L26.421 24.003C26.6048 23.8193 26.7505 23.6012 26.85 23.3612C26.9495 23.1211 27.0007 22.8639 27.0007 22.604C27.0007 22.3442 26.9495 22.0869 26.85 21.8469C26.7505 21.6068 26.6048 21.3887 26.421 21.205L23.285 18.069C22.9797 17.7631 22.5826 17.5656 22.1544 17.5067C21.7262 17.4479 21.2905 17.5309 20.914 17.743Z" fill="#FF4141"/>
</svg>
