<svg width="68" height="26" viewBox="0 0 68 26" fill="none" xmlns="http://www.w3.org/2000/svg">
<g filter="url(#filter0_d_0_7)">
<path d="M28.8448 13.4308C28.8448 16.2777 26.6088 18.3755 23.8647 18.3755C21.1206 18.3755 18.8846 16.2777 18.8846 13.4308C18.8846 10.5639 21.1206 8.48616 23.8647 8.48616C26.6088 8.48616 28.8448 10.5639 28.8448 13.4308ZM26.6647 13.4308C26.6647 11.6518 25.3688 10.4346 23.8647 10.4346C22.3606 10.4346 21.0646 11.6518 21.0646 13.4308C21.0646 15.192 22.3606 16.4271 23.8647 16.4271C25.3688 16.4271 26.6647 15.1898 26.6647 13.4308Z" fill="#EA4335"/>
<path d="M39.8848 13.4308C39.8848 16.2777 37.6488 18.3755 34.9047 18.3755C32.1606 18.3755 29.9246 16.2777 29.9246 13.4308C29.9246 10.5661 32.1606 8.48616 34.9047 8.48616C37.6488 8.48616 39.8848 10.5639 39.8848 13.4308ZM37.7047 13.4308C37.7047 11.6518 36.4088 10.4346 34.9047 10.4346C33.4006 10.4346 32.1046 11.6518 32.1046 13.4308C32.1046 15.192 33.4006 16.4271 34.9047 16.4271C36.4088 16.4271 37.7047 15.1898 37.7047 13.4308Z" fill="#FBBC05"/>
<path d="M50.2547 8.78489V17.6621C50.2547 21.3138 48.0926 22.8052 45.5365 22.8052C43.1304 22.8052 41.6822 21.2023 41.1361 19.8914L43.0341 19.1045C43.3721 19.9093 44.2002 20.859 45.5342 20.859C47.1704 20.859 48.1843 19.8535 48.1843 17.9608V17.2497H48.1082C47.6203 17.8494 46.6802 18.3733 45.494 18.3733C43.0117 18.3733 40.7377 16.2197 40.7377 13.4487C40.7377 10.6575 43.0117 8.48616 45.494 8.48616C46.678 8.48616 47.6181 9.01005 48.1082 9.59191H48.1843V8.78712H50.2547V8.78489ZM48.3388 13.4487C48.3388 11.7075 47.1726 10.4346 45.6887 10.4346C44.1846 10.4346 42.9244 11.7075 42.9244 13.4487C42.9244 15.1719 44.1846 16.4271 45.6887 16.4271C47.1726 16.4271 48.3388 15.1719 48.3388 13.4487Z" fill="#4285F4"/>
<path d="M54.3007 3.58169V18.0724H52.1744V3.58169H54.3007Z" fill="#34A853"/>
<path d="M63.1963 15.0583L64.8884 16.1818C64.3422 16.9866 63.0262 18.3733 60.7521 18.3733C57.9319 18.3733 55.8257 16.2019 55.8257 13.4286C55.8257 10.4881 57.9498 8.48395 60.5081 8.48395C63.0843 8.48395 64.3445 10.526 64.7563 11.6295L64.9824 12.1913L58.346 14.929C58.8541 15.921 59.6442 16.4271 60.7521 16.4271C61.8623 16.4271 62.6322 15.8831 63.1963 15.0583ZM57.9879 13.2792L62.4241 11.4445C62.1801 10.827 61.4459 10.3967 60.582 10.3967C59.474 10.3967 57.9319 11.3709 57.9879 13.2792Z" fill="#EA4335"/>
<path d="M10.8358 12.1445V10.0467H17.9333C18.0027 10.4123 18.0385 10.8448 18.0385 11.313C18.0385 12.8869 17.6065 14.8331 16.2143 16.2197C14.8602 17.6242 13.13 18.3733 10.838 18.3733C6.58985 18.3733 3.01761 14.9267 3.01761 10.6954C3.01761 6.46416 6.58985 3.01761 10.838 3.01761C13.1882 3.01761 14.8624 3.93609 16.1203 5.13325L14.6341 6.61352C13.7321 5.77084 12.51 5.11541 10.8358 5.11541C7.7336 5.11541 5.30733 7.60558 5.30733 10.6954C5.30733 13.7853 7.7336 16.2755 10.8358 16.2755C12.848 16.2755 13.994 15.4707 14.7281 14.7395C15.3235 14.1465 15.7152 13.2993 15.8696 12.1423L10.8358 12.1445Z" fill="#4285F4"/>
</g>
<defs>
<filter id="filter0_d_0_7" x="0" y="0" width="68" height="25.8228" filterUnits="userSpaceOnUse" color-interpolation-filters="sRGB">
<feFlood flood-opacity="0" result="BackgroundImageFix"/>
<feColorMatrix in="SourceAlpha" type="matrix" values="0 0 0 0 0 0 0 0 0 0 0 0 0 0 0 0 0 0 127 0" result="hardAlpha"/>
<feOffset/>
<feGaussianBlur stdDeviation="1.5"/>
<feColorMatrix type="matrix" values="0 0 0 0 1 0 0 0 0 1 0 0 0 0 1 0 0 0 1 0"/>
<feBlend mode="normal" in2="BackgroundImageFix" result="effect1_dropShadow_0_7"/>
<feBlend mode="normal" in="SourceGraphic" in2="effect1_dropShadow_0_7" result="shape"/>
</filter>
</defs>
</svg>
