<svg width="40" height="40" viewBox="0 0 40 40" fill="none" xmlns="http://www.w3.org/2000/svg">
<circle cx="20" cy="20" r="20" fill="#EB5757"/>
<g clip-path="url(#clip0_0_50)">
<path d="M20.0103 8.01062C20.0071 8.01062 20.0029 8.01115 19.9997 8.01115C19.996 8.01115 19.9928 8.01062 19.9891 8.01062C13.3682 8.01062 8 13.3783 8 20.0003C8 26.6212 13.3682 31.9894 19.9891 31.9894C19.9928 31.9894 19.996 31.9894 19.9997 31.9894C20.0029 31.9894 20.0071 31.9894 20.0103 31.9894C26.6312 31.9894 31.9995 26.6212 31.9995 20.0003C32 13.3783 26.6318 8.01062 20.0103 8.01062ZM20.0103 28.5572C20.0071 28.5572 20.0029 28.5566 19.9997 28.5566C19.996 28.5566 19.9928 28.5572 19.9891 28.5572C18.9054 28.5572 18.0267 27.679 18.0267 26.5947C18.0267 25.5115 18.9054 24.6333 19.9891 24.6333C19.9928 24.6333 19.996 24.6333 19.9997 24.6333C20.0029 24.6333 20.0071 24.6333 20.0103 24.6333C21.0935 24.6333 21.9733 25.5115 21.9733 26.5947C21.9733 27.6784 21.0951 28.5572 20.0103 28.5572ZM22.8245 13.6029C22.6963 15.5611 21.8012 21.3849 21.8012 21.3849C21.8012 22.3669 20.9966 23.1624 20.0146 23.1624C20.0093 23.1624 20.004 23.1624 19.9992 23.1624C19.9944 23.1624 19.9886 23.1624 19.9838 23.1624C19.0024 23.1624 18.1978 22.3658 18.1978 21.3849C18.1978 21.3849 17.3032 15.5611 17.175 13.6029C17.1114 12.6225 17.8625 10.802 19.9844 10.802C19.9897 10.802 19.995 10.8025 19.9997 10.8025C20.0045 10.8025 20.0098 10.802 20.0151 10.802C22.1364 10.802 22.8886 12.6225 22.8245 13.6029Z" fill="white"/>
</g>
<defs>
<clipPath id="clip0_0_50">
<rect width="24" height="24" fill="white" transform="translate(8 8)"/>
</clipPath>
</defs>
</svg>
