<svg width="12" height="11" viewBox="0 0 12 11" fill="none" xmlns="http://www.w3.org/2000/svg">
<path d="M5.39326 0.236019C5.53845 -0.0787398 5.9858 -0.0787397 6.13098 0.236019L7.52924 3.26743C7.58841 3.39571 7.70998 3.48404 7.85027 3.50067L11.1654 3.89373C11.5096 3.93454 11.6478 4.36 11.3934 4.59534L8.9424 6.86192C8.83868 6.95783 8.79225 7.10075 8.81978 7.23931L9.47039 10.5136C9.53794 10.8536 9.17603 11.1166 8.87356 10.9473L5.96053 9.31668C5.83726 9.24767 5.68699 9.24767 5.56371 9.31668L2.65069 10.9473C2.34822 11.1166 1.98631 10.8536 2.05386 10.5136L2.70447 7.23931C2.732 7.10075 2.68556 6.95783 2.58184 6.86192L0.130888 4.59534C-0.123601 4.36 0.0146379 3.93454 0.358855 3.89373L3.67398 3.50067C3.81427 3.48404 3.93584 3.39571 3.99501 3.26743L5.39326 0.236019Z" fill="#FFB800"/>
</svg>
