<svg width="28" height="26" viewBox="0 0 28 26" fill="none" xmlns="http://www.w3.org/2000/svg">
<path d="M6.14984 6.19713C6.59889 6.19713 7.04269 6.31699 7.43505 6.54503C7.56455 6.62069 8.13925 7.06829 8.4189 7.56716C8.51375 7.73651 8.5778 7.90339 8.624 8.06178C8.98135 8.20851 9.3415 8.26508 9.3688 8.26897V8.84456C9.45665 8.93295 9.53995 9.02558 9.6117 9.1267C9.8756 9.49758 9.996 9.85608 10.0359 9.99609C10.0775 9.99786 10.1167 10.0007 10.1549 10.0035V9.4357L11.2959 7.82808C11.6081 7.61524 11.8727 7.33841 12.0757 7.01703C12.3417 7.14996 12.6399 7.22633 12.9567 7.22633C13.0085 7.22633 13.0575 7.21714 13.1082 7.2129C13.3273 7.04849 13.5625 6.90354 13.818 6.79287C13.7512 6.30037 13.7204 5.34577 14.2086 4.28404C14.2531 4.18681 14.3766 3.96973 14.4375 3.86967C14.1446 3.54051 13.747 3.30893 13.2962 3.2308C13.3329 3.077 13.355 2.91754 13.355 2.75243C13.355 1.64015 12.4628 0.738578 11.3621 0.738578C11.2739 0.738578 11.1881 0.746357 11.1034 0.757671C10.8237 0.304412 10.3299 0 9.76185 0C8.8872 0 8.1781 0.716305 8.1781 1.59949C8.1781 1.61823 8.18265 1.63555 8.18335 1.65394C7.49735 1.8293 6.98739 2.45156 6.98739 3.19933C6.98739 3.21418 6.99124 3.22867 6.99229 3.24352C6.85859 3.21489 6.72034 3.19933 6.57824 3.19933C5.47714 3.19933 4.58464 4.10125 4.58464 5.21318C4.58464 5.68801 4.74844 6.12288 5.02039 6.46654C5.42219 6.27244 5.91429 6.19713 6.14984 6.19713ZM10.1552 8.26897C10.2945 8.24882 10.4307 8.22053 10.5619 8.18023L10.1552 8.75263V8.26897Z" fill="white"/>
<path d="M9.52596 11.0989C9.63831 10.9631 9.75137 10.838 9.86232 10.7256C9.87072 10.7171 9.87946 10.7082 9.88786 10.6997C9.88191 10.6997 9.87666 10.6994 9.87071 10.6994C9.72861 10.6994 9.57531 10.7114 9.44336 10.7468C9.44021 10.7475 9.43601 10.7478 9.43286 10.7485C9.43321 10.7337 9.43601 10.7195 9.43706 10.7051C9.43706 10.7022 9.43776 10.6994 9.43776 10.6966C9.43776 10.5276 9.40976 10.3667 9.36846 10.2111C9.32891 10.0623 9.22461 9.79429 9.04296 9.53938C9.03561 9.52912 9.02581 9.52134 9.01846 9.51109C8.92046 9.38028 8.80076 9.2682 8.66846 9.17168C8.47631 9.03167 8.25721 8.92489 8.02061 8.86444C8.02096 8.85312 8.03391 8.72549 8.01151 8.54129C7.99191 8.38113 7.94256 8.17854 7.83616 7.96959C7.82706 7.95156 7.82006 7.93352 7.80991 7.91549C7.61216 7.563 7.14596 7.19282 7.08436 7.15676C6.80891 6.9966 6.49076 6.90397 6.14986 6.90397C5.96751 6.90397 5.53666 6.97928 5.25841 7.1359C5.24756 7.14227 5.23776 7.15004 5.22691 7.15641C5.12156 7.21828 5.02426 7.29005 4.93326 7.36925C4.78906 7.49441 4.66166 7.63795 4.56016 7.80236C4.45971 7.78892 4.35786 7.78008 4.25356 7.78008C2.9484 7.78008 1.8907 8.84853 1.8907 10.1669C1.8907 10.3625 1.91695 10.552 1.9607 10.734C0.847701 10.9271 0 11.904 0 13.0834C0 14.4018 1.05805 15.4699 2.3632 15.4699C2.73875 15.4699 3.0926 15.3794 3.4076 15.2221C3.64841 15.6018 3.96166 15.9306 4.33126 16.1827L5.68401 18.0887V21.8085H6.61606V16.7052C7.46026 16.5829 8.19806 16.1346 8.70241 15.4894C8.51656 14.9979 8.41681 14.4849 8.41681 13.9578C8.41681 13.164 8.66846 12.4902 8.74616 12.3006C8.88651 11.9623 9.19661 11.4974 9.52596 11.0989ZM5.68401 17.2798L5.20171 16.6002C5.35746 16.648 5.51916 16.6816 5.68401 16.7052V17.2798Z" fill="white"/>
<path d="M24.4342 9.33463C24.3845 9.33463 24.3365 9.34064 24.2868 9.34241C24.3817 9.05709 24.4342 8.75338 24.4342 8.4366C24.4342 6.85549 23.1661 5.57456 21.602 5.57456C21.5834 5.57456 21.5663 5.57704 21.5481 5.57704C21.2653 3.8736 19.8033 2.57464 18.0362 2.57464C16.9354 2.57464 15.9537 3.08022 15.3002 3.87219C15.219 3.97048 15.1441 4.07407 15.0734 4.1812C15.0661 4.19251 15.057 4.20241 15.05 4.21337C15.0136 4.26959 14.875 4.51389 14.8445 4.58036C14.2768 5.81463 14.5365 6.84595 14.5498 6.91029C14.5526 6.92302 14.5568 6.93504 14.5593 6.94777C14.5824 7.05702 14.6079 7.16521 14.6408 7.27022C14.1617 7.36815 13.727 7.58842 13.3686 7.89707C12.7596 8.42175 12.3728 9.20169 12.3728 10.0739C12.3728 10.174 12.3781 10.2726 12.3879 10.3705C12.3049 10.3776 12.2003 10.3942 12.0879 10.4162C11.7845 10.4756 11.4023 10.5866 11.0631 10.7404C10.9889 10.774 10.9182 10.8097 10.85 10.8475C10.7551 10.8995 10.6648 10.9539 10.5875 11.013C10.5518 11.0405 10.5129 11.0762 10.4741 11.1109C10.0782 11.468 9.55533 12.1779 9.39188 12.5725C9.36983 12.6266 9.11643 13.2457 9.11643 13.9567C9.11643 14.4753 9.22667 14.9668 9.42197 15.4123C9.43317 15.4381 9.46258 15.4964 9.49408 15.5586C9.53853 15.6463 9.58858 15.7421 9.60888 15.7768C9.77618 16.0639 9.98373 16.3227 10.22 16.5518C10.8598 17.1726 11.7243 17.5576 12.6815 17.5576C13.6248 17.5576 14.4798 17.1853 15.1175 16.5804C15.7559 17.0584 16.5109 17.3823 17.3334 17.5014V25.2001H18.7397V19.5899L20.7809 16.7137C21.2453 16.3973 21.6489 15.9992 21.9821 15.5452C22.6208 16.159 23.4829 16.5376 24.4342 16.5376C26.4033 16.5376 28 14.9251 28 12.9363C28 10.9468 26.4033 9.33463 24.4342 9.33463ZM18.74 18.3694V17.5028C18.9889 17.4668 19.2325 17.4166 19.468 17.3441L18.74 18.3694Z" fill="white"/>
</svg>
