<svg width="12" height="11" viewBox="0 0 12 11" fill="none" xmlns="http://www.w3.org/2000/svg">
<path d="M5.39322 0.23614C5.5384 -0.078615 5.98575 -0.0786149 6.13093 0.23614L7.52917 3.26751C7.58834 3.39579 7.70991 3.48412 7.85019 3.50075L11.1653 3.89381C11.5095 3.93462 11.6477 4.36007 11.3932 4.59541L8.94232 6.86196C8.8386 6.95788 8.79216 7.10079 8.8197 7.23936L9.47029 10.5137C9.53785 10.8536 9.17594 11.1166 8.87347 10.9473L5.96048 9.3167C5.83721 9.24769 5.68694 9.24769 5.56367 9.3167L2.65067 10.9473C2.34821 11.1166 1.9863 10.8536 2.05385 10.5136L2.70445 7.23936C2.73198 7.10079 2.68555 6.95788 2.58183 6.86196L0.130902 4.59541C-0.123584 4.36007 0.0146533 3.93462 0.358867 3.89381L3.67395 3.50075C3.81424 3.48412 3.93581 3.39579 3.99498 3.26751L5.39322 0.23614Z" fill="#FFB800"/>
</svg>
