<svg width="12" height="11" viewBox="0 0 12 11" fill="none" xmlns="http://www.w3.org/2000/svg">
<path d="M5.39328 0.236019C5.53846 -0.0787398 5.98581 -0.0787397 6.131 0.236019L7.52925 3.26743C7.58842 3.39571 7.70999 3.48404 7.85028 3.50067L11.1654 3.89373C11.5096 3.93454 11.6479 4.36 11.3934 4.59534L8.94242 6.86192C8.8387 6.95783 8.79226 7.10075 8.8198 7.23931L9.4704 10.5136C9.53796 10.8536 9.17604 11.1166 8.87357 10.9473L5.96055 9.31668C5.83727 9.24767 5.687 9.24767 5.56373 9.31668L2.6507 10.9473C2.34824 11.1166 1.98632 10.8536 2.05388 10.5136L2.70448 7.23931C2.73201 7.10075 2.68558 6.95783 2.58186 6.86192L0.130903 4.59534C-0.123586 4.36 0.0146534 3.93454 0.358871 3.89373L3.67399 3.50067C3.81428 3.48404 3.93586 3.39571 3.99503 3.26743L5.39328 0.236019Z" fill="#FFB800"/>
</svg>
