<svg width="8" height="15" viewBox="0 0 8 15" fill="none" xmlns="http://www.w3.org/2000/svg">
<path d="M0.00257723 7.48823C0.00208917 7.23833 0.089124 6.99614 0.248575 6.80372L5.59636 0.38638C5.7779 0.167958 6.03878 0.0306013 6.3216 0.00452578C6.60442 -0.0215497 6.88601 0.0657923 7.10443 0.247337C7.32285 0.428882 7.46021 0.689759 7.48629 0.972578C7.51236 1.2554 7.42502 1.53699 7.24347 1.75541L2.45186 7.48823L7.07234 13.2211C7.16119 13.3305 7.22753 13.4563 7.26757 13.5915C7.30761 13.7266 7.32054 13.8683 7.30563 14.0084C7.29072 14.1486 7.24826 14.2844 7.1807 14.4081C7.11313 14.5318 7.02178 14.6409 6.91191 14.7291C6.80194 14.8271 6.67292 14.9013 6.53294 14.947C6.39297 14.9928 6.24505 15.0092 6.09845 14.9951C5.95185 14.9811 5.80974 14.9369 5.68101 14.8653C5.55228 14.7938 5.43971 14.6965 5.35036 14.5794L0.184402 8.16205C0.0501555 7.9641 -0.0138628 7.72685 0.00257723 7.48823Z" fill="#242424"/>
</svg>
