<svg width="24" height="24" viewBox="0 0 24 24" fill="none" xmlns="http://www.w3.org/2000/svg">
<g clip-path="url(#clip0_0_29)">
<path d="M12.0103 0.0106201C12.0072 0.0106201 12.0029 0.0111498 11.9997 0.0111498C11.996 0.0111498 11.9929 0.0106201 11.9891 0.0106201C5.36823 0.0106201 9.53674e-07 5.37832 9.53674e-07 12.0003C9.53674e-07 18.6212 5.36823 23.9894 11.9891 23.9894C11.9929 23.9894 11.996 23.9894 11.9997 23.9894C12.0029 23.9894 12.0072 23.9894 12.0103 23.9894C18.6312 23.9894 23.9995 18.6212 23.9995 12.0003C24 5.37832 18.6318 0.0106201 12.0103 0.0106201ZM12.0103 20.5572C12.0072 20.5572 12.0029 20.5566 11.9997 20.5566C11.996 20.5566 11.9929 20.5572 11.9891 20.5572C10.9054 20.5572 10.0267 19.679 10.0267 18.5947C10.0267 17.5115 10.9054 16.6333 11.9891 16.6333C11.9929 16.6333 11.996 16.6333 11.9997 16.6333C12.0029 16.6333 12.0072 16.6333 12.0103 16.6333C13.0935 16.6333 13.9733 17.5115 13.9733 18.5947C13.9733 19.6784 13.0951 20.5572 12.0103 20.5572ZM14.8245 5.6029C14.6963 7.5611 13.8012 13.3849 13.8012 13.3849C13.8012 14.3669 12.9966 15.1624 12.0146 15.1624C12.0093 15.1624 12.004 15.1624 11.9992 15.1624C11.9944 15.1624 11.9886 15.1624 11.9838 15.1624C11.0024 15.1624 10.1978 14.3658 10.1978 13.3849C10.1978 13.3849 9.30317 7.5611 9.17499 5.6029C9.11143 4.62248 9.86251 2.802 11.9844 2.802C11.9897 2.802 11.995 2.80252 11.9997 2.80252C12.0045 2.80252 12.0098 2.802 12.0151 2.802C14.1364 2.802 14.8886 4.62248 14.8245 5.6029Z" fill="#414141"/>
</g>
<defs>
<clipPath id="clip0_0_29">
<rect width="24" height="24" fill="white"/>
</clipPath>
</defs>
</svg>
